<svg width="24" height="24" viewBox="0 0 24 24" fill="none" xmlns="http://www.w3.org/2000/svg">
<path d="M12 17H12.01" stroke="#393B47" stroke-width="2" stroke-linecap="round" stroke-linejoin="round"/>
<path d="M18.3832 5.63087C14.8793 2.12304 9.12928 2.12304 5.62537 5.63087C2.48084 8.77891 2.21131 13.546 4.54725 17.0538L4.27771 18.2231L3.91834 19.7521C3.82849 20.2918 4.27771 20.7415 4.72693 20.5616L6.16443 20.1119L7.42225 19.7521C10.8363 21.8208 15.3285 21.2812 18.2933 18.4029C21.8871 14.8951 21.8871 9.13869 18.3832 5.63087Z" stroke="#393B47" stroke-width="2" stroke-miterlimit="10" stroke-linecap="round" stroke-linejoin="round"/>
<path d="M11.9141 14C11.9141 12.25 13.5352 11.9571 14.0935 11.4835C14.6535 11.0082 15 10.351 15 9.625C15 8.17525 13.6184 7 11.9141 7C10.9926 7 10.1653 7.34364 9.59991 7.88849C9.33845 8.14043 9.13297 8.43538 9 8.75928" stroke="#393B47" stroke-width="2" stroke-linecap="round" stroke-linejoin="round"/>
</svg>
